<?xml version="1.0" standalone="no"?>
<!DOCTYPE svg PUBLIC "-//W3C//DTD SVG 20010904//EN"
 "http://www.w3.org/TR/2001/REC-SVG-20010904/DTD/svg10.dtd">
<svg version="1.0" xmlns="http://www.w3.org/2000/svg"
 width="512.000000pt" height="512.000000pt" viewBox="0 0 512.000000 512.000000"
 preserveAspectRatio="xMidYMid meet">
<metadata>
Created by potrace 1.11, written by Peter Selinger 2001-2013
</metadata>
<g transform="translate(0.000000,512.000000) scale(0.100000,-0.100000)"
fill="#000000" stroke="none">
<path d="M2628 4799 c-10 -6 -18 -7 -18 -4 0 3 -13 -1 -29 -9 -16 -9 -32 -12
-35 -8 -4 3 -11 1 -15 -6 -4 -7 -17 -14 -29 -15 -12 0 -24 -7 -26 -14 -3 -7
-12 -13 -20 -13 -18 0 -139 -119 -159 -157 -34 -63 -59 -117 -63 -137 -13 -63
-17 -96 -16 -141 1 -72 9 -131 20 -152 6 -10 11 -22 12 -28 8 -33 23 -65 31
-65 5 0 9 -5 9 -12 0 -9 69 -107 90 -128 40 -39 58 -157 34 -217 -7 -18 -11
-33 -9 -33 7 0 -26 -40 -64 -76 -18 -19 -36 -33 -40 -32 -7 1 -32 -9 -126 -52
-38 -18 -79 -34 -90 -37 -34 -8 -199 -10 -215 -2 -8 4 -30 13 -49 20 -18 7
-48 23 -67 35 -19 13 -34 21 -34 18 0 -4 -13 8 -29 25 -15 16 -31 27 -35 24
-3 -3 -6 -2 -6 4 0 6 -13 26 -30 44 -16 19 -30 40 -30 47 0 6 -5 12 -12 12 -6
0 -8 3 -5 6 7 7 -21 64 -36 75 -5 3 -8 10 -7 15 1 12 -43 83 -52 84 -4 0 -13
6 -20 13 -7 8 -31 25 -53 39 -100 62 -229 63 -333 2 -96 -56 -157 -149 -166
-249 -1 -17 -5 -36 -9 -42 -4 -6 -3 -14 3 -18 6 -4 8 -10 5 -15 -7 -12 26
-130 37 -130 4 0 8 -7 8 -15 0 -7 8 -19 17 -24 10 -6 14 -11 9 -11 -13 0 67
-70 82 -70 6 0 12 -4 12 -8 0 -9 63 -34 95 -38 11 -1 20 -3 20 -4 0 -2 21 -6
64 -13 57 -9 162 -69 218 -123 29 -28 50 -54 46 -58 -3 -3 -1 -6 4 -6 6 0 20
-19 31 -42 40 -87 44 -101 46 -185 0 -35 5 -63 10 -63 5 0 3 -7 -4 -15 -7 -8
-13 -28 -15 -43 -1 -16 -4 -33 -8 -38 -3 -6 -8 -28 -10 -49 -3 -22 -10 -51
-15 -65 -12 -29 -52 -89 -52 -78 0 4 -14 -6 -32 -22 -17 -16 -34 -28 -37 -28
-3 1 -22 -2 -41 -6 -19 -4 -44 -8 -55 -10 -35 -5 -145 30 -145 47 0 5 -4 6 -9
2 -5 -3 -12 -1 -16 5 -4 6 -11 8 -16 5 -5 -4 -9 -1 -9 4 0 6 -9 11 -20 11 -11
0 -20 4 -20 8 0 4 -8 8 -17 9 -10 0 -29 4 -43 8 -31 9 -166 10 -200 1 -14 -3
-38 -9 -55 -12 -16 -3 -32 -10 -36 -16 -4 -6 -12 -7 -18 -4 -6 4 -11 2 -11 -4
0 -6 -5 -8 -10 -5 -6 3 -10 3 -10 -2 0 -4 -13 -14 -30 -21 -44 -20 -142 -119
-176 -177 -16 -27 -29 -52 -29 -55 0 -3 -3 -9 -6 -15 -16 -27 -33 -96 -35
-150 -2 -33 -4 -62 -5 -65 -1 -3 0 -9 1 -15 3 -16 12 -79 13 -92 0 -7 5 -13
10 -13 6 0 8 -3 4 -6 -3 -4 0 -19 9 -35 8 -16 15 -32 15 -36 1 -16 58 -100 91
-133 49 -51 95 -89 101 -84 2 2 10 -2 17 -11 7 -8 20 -15 29 -15 9 0 26 -7 37
-15 12 -8 24 -11 28 -8 3 3 6 1 6 -6 0 -7 4 -10 8 -7 5 3 36 -1 70 -8 33 -7
59 -10 57 -7 -2 3 20 6 48 5 29 0 66 3 82 9 17 5 38 9 48 9 9 -1 17 3 17 8 0
4 12 11 27 15 15 3 39 15 55 26 15 11 28 17 28 14 0 -4 6 0 13 7 8 7 29 27 48
43 19 17 48 48 64 70 68 90 128 127 214 130 92 3 155 -32 216 -119 31 -45 74
-94 148 -169 37 -38 67 -75 67 -83 0 -8 3 -14 8 -14 8 0 32 -50 37 -78 2 -9 4
-17 5 -17 6 0 13 -63 13 -125 0 -95 -9 -134 -50 -218 -15 -30 -60 -90 -102
-134 -42 -44 -76 -84 -76 -89 0 -5 -5 -13 -10 -17 -41 -27 -53 -226 -20 -299
11 -24 23 -43 27 -43 5 0 8 -6 8 -13 0 -18 88 -96 117 -103 13 -4 23 -10 23
-14 0 -13 61 -22 145 -22 94 1 105 3 105 13 0 5 7 6 15 3 8 -4 15 -1 15 4 0 6
9 14 20 17 11 4 31 17 44 30 13 13 26 21 29 19 3 -3 8 4 12 15 3 12 10 21 15
21 13 0 59 100 66 145 10 64 10 80 -1 87 -6 5 -5 8 3 8 8 0 10 5 6 12 -16 25
-22 151 -11 208 13 62 19 79 49 140 32 66 126 170 153 170 8 0 15 4 15 9 0 5
18 16 39 25 37 14 69 20 166 31 22 2 51 6 65 9 13 3 42 8 64 12 22 3 44 8 48
10 8 5 43 14 68 18 9 1 22 6 29 10 8 5 43 19 78 31 54 19 71 21 111 12 26 -5
50 -14 53 -19 3 -5 10 -10 15 -10 17 -1 74 -45 67 -51 -3 -4 -2 -7 3 -7 9 0
56 -72 54 -85 0 -3 1 -7 1 -10 1 -3 3 -14 4 -25 1 -11 4 -21 5 -22 1 -2 3 -19
4 -38 1 -20 6 -41 10 -48 4 -7 2 -12 -5 -12 -8 0 -8 -4 -1 -12 5 -7 13 -29 17
-48 4 -19 16 -47 26 -62 11 -14 19 -31 19 -37 0 -6 5 -11 10 -11 6 0 10 -7 10
-15 0 -26 145 -159 181 -167 8 -2 16 -5 19 -9 8 -8 92 -38 130 -45 44 -9 144
-8 190 1 19 4 40 8 47 9 7 1 16 5 19 9 4 4 16 7 26 7 10 0 18 4 18 10 0 5 3
10 8 9 15 -2 52 14 52 22 0 5 5 9 11 9 6 0 16 6 23 12 7 7 28 24 46 38 18 14
46 45 63 70 17 25 35 48 41 52 6 4 7 8 2 8 -4 0 -1 11 7 24 39 59 70 280 46
327 -4 9 -10 27 -12 40 -3 13 -17 49 -31 79 -61 127 -161 215 -301 266 -41 15
-102 25 -162 27 -18 1 -33 5 -33 10 0 4 -4 6 -9 3 -13 -8 -83 29 -113 59 -15
15 -38 49 -52 76 -29 58 -28 132 2 194 11 22 18 43 15 47 -2 5 1 8 8 8 7 0 9
3 6 6 -3 4 -2 14 3 24 5 9 12 30 14 46 3 16 10 45 16 64 11 37 21 100 25 165
2 22 4 42 5 45 1 3 1 10 0 15 -13 55 -14 299 -1 323 4 9 7 25 6 35 -2 9 1 17
6 17 5 0 8 3 8 8 -3 12 25 72 33 72 4 0 8 5 8 11 0 22 53 79 108 116 31 21 60
42 63 46 3 4 16 9 27 10 12 1 22 4 22 7 0 4 6 7 13 8 6 0 23 3 37 7 14 3 58 8
98 11 101 6 206 47 257 99 89 92 119 267 65 378 -40 84 -142 177 -193 177 -10
0 -17 4 -17 8 0 8 -25 11 -105 12 -47 0 -69 -4 -110 -21 -16 -7 -32 -13 -35
-13 -11 -3 -65 -42 -85 -61 -11 -12 -40 -52 -65 -90 -47 -72 -99 -129 -141
-154 -67 -40 -111 -63 -127 -66 -9 -2 -17 -4 -17 -6 0 -10 -184 -18 -191 -8
-3 5 -9 7 -14 4 -4 -3 -25 2 -46 11 -22 9 -40 16 -41 15 -7 -3 -73 34 -73 41
0 4 -7 8 -15 8 -8 0 -15 5 -15 10 0 6 -7 10 -15 10 -8 0 -15 5 -15 11 0 5 -4
7 -10 4 -5 -3 -10 -2 -10 4 0 6 -11 13 -25 17 -14 3 -25 10 -25 15 0 5 -6 9
-12 9 -7 0 -35 11 -63 24 -27 14 -54 22 -59 19 -5 -4 -6 -1 -2 5 4 7 2 12 -4
12 -28 0 -107 111 -94 132 3 4 1 8 -4 8 -10 0 -8 103 2 143 5 15 13 27 19 27
6 0 8 3 4 6 -3 4 19 37 49 74 29 37 54 71 54 75 0 5 6 16 14 24 8 9 16 25 18
36 1 11 6 23 10 26 5 3 9 17 10 32 1 15 5 27 8 27 4 0 6 18 6 40 -1 22 1 40 4
40 3 0 4 19 3 42 0 24 -2 43 -3 43 -1 0 -3 16 -5 36 -4 36 -42 149 -54 159 -3
3 -12 17 -20 32 -20 39 -151 170 -151 151 0 -4 -7 2 -16 13 -8 10 -12 13 -9 6
6 -11 3 -11 -14 0 -12 7 -21 16 -21 21 0 4 -4 6 -8 3 -4 -2 -21 1 -37 9 -17 7
-43 17 -60 23 -40 12 -196 13 -217 1z m355 -1669 c42 0 92 -40 109 -86 8 -24
12 -47 7 -49 -4 -3 -4 -17 1 -30 6 -16 6 -25 0 -25 -5 0 -7 -7 -4 -15 7 -16
-25 -72 -54 -95 -20 -17 -31 -20 -77 -24 -18 -2 -37 -6 -43 -10 -6 -3 -13 -2
-16 3 -3 5 -21 5 -41 1 -19 -4 -35 -4 -35 1 0 7 -33 -1 -80 -19 -8 -3 -18 -6
-22 -6 -4 -1 -13 -7 -19 -13 -7 -7 -20 -13 -28 -13 -8 0 -11 -3 -8 -7 4 -3 -5
-15 -20 -25 -16 -10 -24 -18 -19 -18 5 0 0 -10 -11 -22 -22 -24 -49 -129 -39
-153 3 -8 1 -17 -4 -20 -7 -4 -6 -13 0 -26 6 -10 7 -19 2 -19 -11 0 6 -144 17
-148 5 -2 7 -11 4 -20 -3 -15 13 -40 65 -97 21 -22 51 -43 73 -51 63 -20 219
-32 241 -18 4 3 8 1 8 -3 0 -5 16 -15 35 -22 26 -9 41 -24 55 -54 25 -50 27
-143 4 -175 -8 -12 -13 -22 -10 -22 3 0 -5 -10 -17 -23 -21 -21 -29 -24 -77
-29 -11 -1 -20 -6 -20 -9 0 -4 -13 -4 -30 1 -19 5 -32 5 -36 -2 -4 -6 -10 -5
-15 3 -5 8 -9 10 -9 4 0 -13 -124 -9 -128 4 -3 8 -10 8 -23 1 -14 -8 -19 -7
-19 2 0 10 -2 10 -9 0 -6 -11 -10 -10 -15 4 -6 16 -8 16 -16 4 -7 -11 -10 -11
-10 -2 0 7 -6 12 -12 11 -20 -2 -58 12 -58 22 0 5 -6 6 -13 3 -8 -3 -20 2 -27
11 -7 8 -19 15 -27 15 -8 0 -12 4 -9 8 2 4 -4 8 -14 9 -11 1 -29 11 -42 22
-12 12 -25 21 -30 21 -4 0 -8 7 -8 16 0 8 -4 13 -9 9 -5 -3 -12 4 -16 15 -3
11 -11 20 -16 20 -6 0 -17 7 -25 15 -11 10 -12 15 -3 15 7 0 3 8 -8 18 -11 9
-26 31 -33 49 -8 17 -18 29 -24 26 -5 -3 -6 -1 -3 5 10 15 -3 43 -17 35 -7 -4
-7 -1 1 9 7 8 10 18 6 22 -4 3 -8 17 -10 29 -2 12 -6 29 -10 37 -9 22 -9 43
-1 62 5 9 4 20 -2 23 -7 4 -7 12 0 25 6 10 6 21 2 24 -5 3 -6 26 -2 51 4 25 4
45 1 45 -3 0 -6 18 -6 40 0 22 3 40 7 40 4 0 3 13 -2 28 -4 16 -4 36 2 45 6
11 5 17 -2 17 -8 0 -7 6 0 21 7 11 9 27 6 35 -3 8 -2 14 2 14 5 0 14 23 21 51
7 28 19 53 27 56 8 3 12 9 9 13 -2 4 9 26 25 49 17 22 30 46 30 53 0 6 2 9 5
6 3 -2 26 15 52 38 25 24 50 41 55 38 4 -3 8 0 8 6 0 13 136 80 162 80 9 0 20
5 24 11 4 8 9 8 17 0 7 -7 15 -7 22 -1 7 6 62 11 124 13 61 1 111 6 111 12 0
5 5 4 12 -3 7 -7 21 -12 31 -12z"/>
<path d="M4387 2599 c-9 -6 -17 -7 -17 -4 0 3 -21 -6 -47 -19 -72 -36 -128
-104 -140 -171 -23 -120 22 -226 121 -285 37 -22 52 -26 127 -34 46 -5 134 26
166 59 14 14 30 25 34 25 5 0 9 7 9 15 0 8 5 15 11 15 5 0 7 5 4 10 -3 6 -2
10 3 10 17 0 47 142 33 155 -3 4 -6 12 -6 18 -2 23 -18 71 -29 85 -44 53 -77
82 -113 101 -24 12 -43 19 -43 16 0 -2 -11 0 -25 5 -16 6 -25 6 -25 0 0 -6 -9
-6 -23 -1 -14 5 -30 5 -40 0z"/>
<path d="M1453 1412 c-46 -15 -109 -70 -125 -111 -44 -109 5 -233 111 -277 43
-18 140 -11 178 13 29 18 87 80 89 94 1 5 3 10 4 12 2 2 9 56 11 82 1 18 -10
59 -23 85 -16 31 -63 80 -77 80 -6 0 -11 5 -11 12 0 6 -3 8 -6 5 -4 -3 -15 -2
-25 4 -29 15 -80 16 -126 1z"/>
</g>
</svg>
